<?xml version="1.0" encoding="UTF-8" standalone="no"?>
<svg
   xmlns:dc="http://purl.org/dc/elements/1.1/"
   xmlns:cc="http://creativecommons.org/ns#"
   xmlns:rdf="http://www.w3.org/1999/02/22-rdf-syntax-ns#"
   xmlns:svg="http://www.w3.org/2000/svg"
   xmlns="http://www.w3.org/2000/svg"
   viewBox="0 0 624 166.66667"
   height="166.66667"
   width="624"
   xml:space="preserve"
   id="svg2"
   version="1.1"><metadata
     id="metadata8"><rdf:RDF><cc:Work
         rdf:about=""><dc:format>image/svg+xml</dc:format><dc:type
           rdf:resource="http://purl.org/dc/dcmitype/StillImage" /></cc:Work></rdf:RDF></metadata><defs
     id="defs6" /><g
     transform="matrix(1.3333333,0,0,-1.3333333,0,166.66667)"
     id="g10"><g
       transform="scale(0.1)"
       id="g12"><path
         id="path14"
         style="fill:#234c7f;fill-opacity:1;fill-rule:evenodd;stroke:none"
         d="m 290.16,337.73 c 1.828,-37.421 19.801,-64.839 53.82,-82.14 35.282,-14.852 66.879,-9.461 94.731,16.25 9.301,8.98 19.488,10.66 30.629,5.07 13.629,-6.75 27.851,-11.75 42.73,-14.84 29.059,-2.461 46.25,-18.09 51.52,-46.871 4.648,-17.347 16.531,-26.918 35.75,-28.789 19.801,-2.781 35.269,4.328 46.398,21.36 6.532,9.609 11.332,20.281 14.422,32 1.828,7.46 6.789,11.64 14.84,12.57 32.191,4.301 62.852,13.91 91.91,28.789 12.43,7.742 23.09,5.551 32.039,-6.52 3.121,-3.711 6.211,-7.269 9.289,-10.66 20.742,-20.75 42.231,-21.679 64.532,-2.82 23.871,21.062 46.14,43.359 66.878,66.883 19.454,20.429 19.922,41.129 1.372,62.218 -2.821,3.36 -5.86,6.649 -9.301,9.731 -5.86,4.961 -6.641,10.551 -2.309,16.719 61.57,95.308 78.32,197.929 50.16,307.808 -2.191,7.742 0.16,13.321 6.95,16.684 13.6,8.398 24.77,19.058 33.4,32.066 16.41,24.731 18.13,50.282 5.12,76.602 -4.65,12.039 -12.34,14.851 -23.2,8.32 -17.621,-8.039 -35.16,-16.25 -52.461,-24.57 -11.18,-5.891 -19.34,-3.391 -24.609,7.39 -5.551,11.168 -11.45,21.829 -17.622,32.071 -5.898,9.57 -3.437,16.398 7.422,20.429 21.641,9.879 43.321,20.071 65,30.622 6.168,1.25 8.36,5.277 6.481,12.07 -15.781,37.738 -44.25,55.277 -85.391,52.457 -28.469,-3.117 -54.488,-13.008 -78.039,-29.68 -8.672,-6.219 -17.621,-7 -26.922,-2.347 -33.711,18.867 -69.609,32.027 -107.687,39.488 -4.961,0.59 -8.051,3.68 -9.301,9.26 -4.652,19.18 -10.352,38.05 -17.152,56.64 -3.75,13.28 -15.188,19.65 -34.368,19.03 -12.39,-0.94 -19.492,-7.31 -21.332,-19.03 -3.75,-9.29 -7.148,-18.71 -10.238,-28.36 -3.711,-23.83 -17.609,-35.54 -41.793,-35.232 -4.957,-0.308 -9.879,-1.41 -14.848,-3.277 -14.21,-3.672 -28.781,-5.711 -43.628,-6.019 C 401.879,990 326.84,953.199 270.16,878.59 257.191,861.879 251.762,843.012 253.91,821.988 256.719,808.949 251.449,801.52 238.16,799.691 227.93,797.5 219.41,792.422 212.621,784.379 201.48,771.371 191.09,757.73 181.48,743.48 c -10.781,-15.429 -9.57,-29.96 3.75,-43.64 12.7,-13.899 26.758,-26.399 42.27,-37.57 7.109,-4.649 10.309,-11.29 9.691,-19.969 C 233.52,556.879 256.09,479.18 305,409.219 c 5.59,-7.699 5.59,-15.43 0,-23.199 -9.922,-14.54 -14.84,-30.629 -14.84,-48.29 M 634.141,1250 h 42.738 c -2.188,-38.67 -4.809,-77.34 -7.93,-116.05 -0.898,-9.57 3.59,-14.57 13.512,-14.85 25.98,-2.77 51.328,-8.36 76.129,-16.72 10.512,-4.33 17.461,-0.93 20.859,10.2 10.199,30.62 20.781,61.13 31.571,91.48 2.46,13.91 9.761,16.72 21.832,8.32 20.117,-9.57 40.238,-19.18 60.347,-28.75 16.723,-4.37 19.961,-13.32 9.77,-26.95 -13.008,-27.54 -26.02,-54.92 -39.02,-82.15 -5.551,-9.61 -3.359,-16.72 6.52,-21.37 19.492,-10.23 37.422,-22.57 53.832,-37.14 7.148,-6.8 13.789,-6.33 20,1.4 17.609,19.81 35.269,39.46 52.89,58.95 7.459,9.61 15.619,10.54 24.609,2.81 14.53,-12.07 29.53,-23.56 45.04,-34.38 12.69,-6.79 13.59,-15.19 2.77,-25.07 -19.49,-24.46 -38.99,-48.75 -58.48,-72.851 -5.58,-6.219 -5.74,-12.578 -0.47,-19.07 20.75,-25.661 37.93,-53.508 51.53,-83.547 4.02,-9.614 10.66,-12.071 19.96,-7.422 26.01,11.441 51.99,22.57 78.01,33.43 11.75,6.8 19.33,3.679 22.73,-9.29 7.46,-17.351 15.16,-34.531 23.2,-51.57 7.74,-11.711 4.65,-19.019 -9.25,-21.789 -28.83,-10.199 -57.43,-20.121 -85.9,-29.73 -10.24,-3.09 -13.95,-9.77 -11.14,-19.961 4.03,-14.219 6.84,-28.629 8.36,-43.16 0.94,-13.321 7.89,-20.59 20.86,-21.801 27.27,-4.649 54.5,-9.649 81.72,-14.879 10.86,-1.531 16.14,-7.738 15.78,-18.602 0.94,-20.078 2.03,-40.187 3.28,-60.347 1.84,-11.719 -2.92,-16.25 -14.41,-13.442 -30.04,4.031 -60.04,8.52 -90.04,13.442 -10.55,1.879 -15.78,-2.461 -15.78,-12.969 -1.91,-23.832 -6.52,-47.383 -13.95,-70.582 -3.71,-10.82 -0.31,-18.25 10.2,-22.27 30.66,-14.879 61.29,-29.879 91.95,-45.039 9.3,-3.711 11.29,-9.922 6.02,-18.59 -11.76,-21.332 -23.2,-42.851 -34.34,-64.492 -4.37,-9.301 -11.01,-11.488 -20,-6.527 -28.47,13.629 -56.95,27.269 -85.43,40.859 -8.63,4.649 -15.15,2.457 -19.45,-6.48 -12.69,-23.832 -28.2,-45.821 -46.449,-65.942 -7.73,-8.007 -7.262,-15.781 1.41,-23.238 22.889,-22.582 45.669,-45.16 68.239,-67.742 8.01,-7.149 7.74,-13.938 -0.93,-20.469 -23.56,-18.551 -46.76,-37.422 -69.649,-56.601 -8.671,-9.918 -16.25,-8.829 -22.742,3.242 -18.277,23.519 -36.25,47.347 -53.859,71.531 -5.238,8.316 -11.762,9.566 -19.5,3.668 -17.301,-13.59 -36.051,-25.039 -56.168,-34.34 -9.262,-4.019 -11.602,-10.699 -6.953,-20 9.57,-24.719 19.179,-49.328 28.75,-73.7811 4.019,-9.9297 1.09,-16.2578 -8.789,-19.0703 C 840.59,63.832 823.238,57.1914 805.898,50.3906 795.391,44.4883 788.59,47.582 785.512,59.6484 775.59,85.0391 766.02,110.27 756.719,135.309 c -2.5,7.781 -7.578,10.39 -15.309,7.929 C 716.949,136.129 692.191,131.48 667.109,129.301 657.539,128.98 652.27,123.91 651.328,113.98 646.051,76.5195 640.352,39.2617 634.141,2.10938 H 616.52 c -19.801,5.85937 -39.801,10.51172 -59.879,13.91012 -14.571,0.6211 -19.532,7.6094 -14.879,20.8907 3.117,26.6406 6.207,53.3984 9.289,80.3198 1.57,9.879 -2.61,15 -12.531,15.352 -25.079,3.078 -49.54,8.789 -73.36,17.148 -9.301,3.75 -16.101,1.09 -20.43,-7.89 C 431.449,116.48 417.969,91.2109 404.34,66.1719 400,56.8789 393.828,55.1602 385.781,61.0508 370,71.2891 354.059,80.6992 337.969,89.3789 327.73,94.6484 325.43,102.23 331.02,112.109 c 10.191,21.993 20.269,44.102 30.152,66.411 5.277,9.289 3.09,16.402 -6.481,21.359 -22.929,12.66 -43.992,28.012 -63.171,45.941 -7.692,7.461 -15.469,7.621 -23.2,0.508 -28.16,-21.719 -56.64,-43.207 -85.429,-64.566 -8.629,-8.992 -15.313,-7.582 -19.961,4.218 -9.918,18.821 -20.43,37.418 -31.559,55.7 -6.84,10.199 -5.391,18.871 4.18,25.98 21.008,18.238 41.91,36.52 62.648,54.762 9.61,7.109 10.551,15.199 2.821,24.137 -9.93,12.703 -18.25,26.601 -25.079,41.8 -4.339,13.282 -13.011,16.84 -26.019,10.661 -26.602,-8.04 -53.3634,-16.559 -80.2736,-25.5 -10.5468,-4.032 -16.8789,-0.629 -19.0586,10.191 -3.7109,14.527 -8.3593,28.949 -13.9101,43.199 -4.6484,10.789 -1.4102,18.25 9.7305,22.27 25.9687,11.761 51.9882,23.672 77.9998,35.742 7.11,2.187 9.77,7.269 7.891,15.308 -8.352,28.79 -13.321,58.168 -14.879,88.211 0,11.129 -5.703,17.071 -17.192,17.649 C 66.8398,609.801 33.3984,613.98 0,618.629 v 65.473 c 5.26953,6.168 11.9102,8.519 19.9609,6.949 28.7891,-2.18 57.3789,-4.332 85.8591,-6.481 9.61,-1.558 14.879,2.621 15.782,12.5 2.808,27.578 9.019,54.18 18.597,79.879 4.02,10.821 0.781,18.563 -9.769,23.211 -25.078,12.961 -50.1214,26.012 -75.1995,38.981 -9.2891,4.019 -12.3789,10.98 -9.2891,20.898 4.6484,16.723 8.9805,33.441 13.0078,50.16 1.5625,13.321 7.8906,16.52 19.0196,9.723 30.3512,-12.652 60.5112,-25.703 90.5512,-38.981 9.601,-4.961 16.992,-2.621 22.261,6.95 12.699,22.308 27.699,42.578 45.039,60.82 7.418,7.738 7.301,15.16 -0.468,22.269 -23.832,26.641 -47.653,53.24 -71.481,79.88 -6.492,6.8 -6.211,13.28 0.93,19.49 14.219,13.01 28.48,25.98 42.699,38.99 8.359,10.82 15.98,10.39 22.73,-1.41 22.622,-26.6 44.93,-53.52 66.879,-80.78 6.172,-7.7 12.852,-8.32 19.961,-1.84 16.09,12.97 33.239,24.3 51.52,33.87 14.219,4.37 17.66,13.16 10.199,26.48 -11.129,30.32 -22.109,60.82 -32.93,91.49 -5.589,11.13 -2.187,17.77 10.192,19.92 19.808,6.52 39.34,13.01 58.519,19.53 12.34,6.17 20.551,2.74 24.571,-10.23 13.32,-29.69 26.64,-59.26 39.961,-88.67 2.457,-7.74 7.418,-10.67 14.847,-8.83 26.281,7.11 52.93,11.48 79.84,13.01 8.981,0 13.16,4.8 12.539,14.37 -1.207,30.66 -2.457,61.29 -3.707,91.95 -2.5,12.39 2.77,18.09 15.777,17.15 12.114,-0.62 23.981,0.94 35.743,4.65" /><path
         id="path16"
         style="fill:#8c8f91;fill-opacity:1;fill-rule:evenodd;stroke:none"
         d="m 537.109,608.441 c -17.339,17.297 -33.871,33.86 -49.648,49.649 -31.25,31.25 -62.66,62.379 -94.262,93.32 -27.539,22.262 -54.609,21.828 -81.25,-1.371 -5.859,-5.269 -8.039,-11.641 -6.48,-19.059 1.562,-8.679 -1.09,-15.781 -7.93,-21.371 -11.41,-11.129 -23.008,-22.109 -34.809,-32.968 -9.57,-9.262 -19.332,-9.411 -29.21,-0.469 -12.071,10.238 -23.989,20.738 -35.79,31.598 -10.191,9.3 -10.968,19.339 -2.3,30.16 8.359,10.82 16.558,21.519 24.609,32.031 5.902,8.359 13.59,13.59 23.199,15.777 19.223,3.75 27.742,15.16 25.551,34.34 -1.84,20.473 3.551,38.442 16.25,53.871 36.84,46.129 81.41,76.481 133.711,91.012 52.27,14.527 106.48,12.699 162.461,-5.582 8.398,-1.258 13.168,-4.93 14.41,-11.141 -3.391,-6.476 -9.449,-8.468 -18.082,-6.008 -54.219,2.149 -100.629,-15.98 -139.301,-54.339 -16.09,-14.84 -18.547,-32.032 -7.418,-51.563 8.321,-13.598 18.239,-25.937 29.692,-37.109 40.539,-41.168 81.25,-82.028 122.109,-122.578 8.039,-9.262 10.82,-19.18 8.359,-29.692 -0.32,-4.019 -2.46,-6.008 -6.492,-6.008 -3.398,0.27 -6.828,0.43 -10.226,0.43 -24.461,4.328 -36.801,-6.641 -37.153,-32.93" /><path
         id="path18"
         style="fill:#8c8f91;fill-opacity:1;fill-rule:evenodd;stroke:none"
         d="m 898.75,772.301 c 0,0.937 -0.121,1.84 -0.43,2.777 -6.8,17.973 -15.199,35.313 -25.082,51.992 -2.5,3.711 -5.699,4.489 -9.718,2.309 -18.911,-8.949 -37.93,-17.93 -57.149,-26.918 -6.492,-3.082 -8.172,-7.891 -5.121,-14.371 7.148,-15.469 14.262,-30.82 21.371,-45.981 3.43,-6.488 8.668,-8.05 15.777,-4.648 17.071,8.051 34.223,15.937 51.563,23.711 4.961,2.148 7.891,5.859 8.789,11.129 m 2.809,201.961 c 29.691,0.578 50.429,-8.364 62.191,-26.922 5.941,-8.039 4.371,-13.942 -4.648,-17.692 -21.332,-9.878 -42.692,-19.769 -64.024,-29.687 -9.918,-3.402 -12.379,-9.762 -7.457,-19.02 10.231,-20.429 19.801,-41.019 28.789,-61.761 4.059,-10.508 10.82,-13.008 20.43,-7.418 19.801,9.289 39.609,18.547 59.41,27.847 12.07,6.84 19.18,3.403 21.37,-10.23 3.75,-18.25 0,-34.969 -11.14,-50.117 -14.531,-18.91 -32.808,-32.66 -54.761,-41.332 -17.34,-8.051 -35,-14.532 -52.969,-19.489 -56.328,-14.222 -103.051,-43.953 -140.16,-89.101 -13.039,-16.449 -21.52,-24.649 -25.539,-24.649 -4.031,0.309 -13.321,7.93 -27.852,22.731 -14.258,13.047 -29.418,24.18 -45.508,33.437 -13.953,9.301 -15.671,20.161 -5.082,32.5 11.411,11.762 23.481,22.731 36.172,32.969 39.61,32.813 67.188,73.832 82.617,123.051 5.274,15.781 11.172,31.402 17.692,46.871 25.672,49.18 62.5,75.199 110.469,78.012" /><path
         id="path20"
         style="fill:#8c8f91;fill-opacity:1;fill-rule:evenodd;stroke:none"
         d="m 700.078,603.32 c 25.391,-23.55 48.442,-47.379 69.184,-71.48 39.289,-44.57 82.297,-85.281 129.058,-122.149 12.66,-8.953 23.981,-19.652 33.871,-31.992 10.86,-13.008 10.539,-25.551 -0.941,-37.621 -21.641,-24.457 -44.84,-47.539 -69.648,-69.18 -11.403,-10.859 -23.633,-11.449 -36.641,-1.839 -8.981,6.171 -16.723,13.793 -23.199,22.742 -33.133,44.84 -70.551,85.738 -112.352,122.539 -4.64,3.75 -7.422,8.672 -8.39,14.879 -3.68,29.371 -8.79,58.793 -15.282,88.203 -7.109,19.808 -0.816,33.398 19.032,40.859 10.82,5.86 15.929,14.84 15.308,26.918 0,4.641 0,10.66 0,18.121" /><path
         id="path22"
         style="fill:#8c8f91;fill-opacity:1;fill-rule:evenodd;stroke:none"
         d="m 582.621,450.59 c -16.723,-66.57 -15.199,-132.66 4.649,-198.25 -7.739,65.941 -9.258,132 -4.649,198.25 m 39.02,175.461 c 19.179,0 38.199,0.16 57.07,0.469 6.211,0.281 8.988,-2.77 8.398,-9.29 -0.347,-4.96 -0.347,-9.89 0,-14.851 4.02,-18.59 -2.968,-31.867 -20.898,-39.957 -12.691,-6.762 -17.813,-17.934 -15.352,-33.402 4.02,-26.598 8.832,-53.079 14.411,-79.372 9.89,-72.109 3.558,-142.699 -19.059,-211.718 -3.09,-8.321 -6.949,-16.25 -11.602,-23.668 -7.73,-11.762 -18.558,-16.883 -32.5,-15.313 -12.968,0.93 -22.109,7.731 -27.379,20.43 -19.179,55.391 -26.492,112.18 -21.839,170.391 1.558,34.96 7.929,69.14 19.058,102.609 5.242,14.18 8.52,28.91 9.731,44.101 1.871,14.809 -3.668,25.668 -16.719,32.5 -12.691,6.141 -17.77,16.532 -15.313,31.059 1.524,13.633 4.063,21.84 7.461,24.652 3.36,3.079 11.871,4.289 25.512,3.668 13,0 25.969,0 39.02,0 v -2.308" /><path
         id="path24"
         style="fill:#8c8f91;fill-opacity:1;fill-rule:evenodd;stroke:none"
         d="m 411.289,338.199 c -1.519,18.91 -12.23,28.832 -32.027,29.731 -19.184,-1.25 -29.223,-11.289 -30.16,-30.2 1.558,-20.07 12.07,-30.621 31.597,-31.519 18.832,2.148 29.071,12.809 30.59,31.988 m -28.75,-75.621 c -34.961,1.211 -59.258,17.461 -72.891,48.711 -10.82,30 -4.527,56.949 19.024,80.781 43.629,40.551 87.269,80.942 130.937,121.168 20.082,18.871 40.512,37.582 61.25,56.172 7.77,9.262 12.422,7.891 13.942,-4.18 4.648,-18.242 12.699,-34.8 24.148,-49.64 3.711,-4.649 4.492,-9.77 2.34,-15.36 -10.551,-29.679 -17.23,-60.351 -20,-91.91 -0.629,-7.109 -3.359,-13.011 -8.359,-17.66 -33.711,-35.269 -67.461,-70.539 -101.168,-105.82 -14.883,-14.25 -31.25,-21.68 -49.223,-22.262" /><path
         id="path26"
         style="fill:#8c8f91;fill-opacity:1;fill-rule:evenodd;stroke:none"
         d="m 608.59,800.621 c 1.922,46.41 3.601,93.008 5.121,139.731 1.559,16.41 -2.301,31.558 -11.602,45.507 -5.55,8.672 -6.019,17.811 -1.371,27.381 5.551,14.85 11.293,29.69 17.153,44.57 0.308,5.86 3.398,9.3 9.3,10.24 8.981,1.83 15.93,-0.82 20.86,-7.93 6.828,-19.5 12.89,-39.14 18.16,-58.95 0.898,-6.791 -1.09,-13.01 -6.051,-18.592 -11.14,-13.906 -16.57,-29.848 -16.25,-47.808 -1.879,-60.942 -3.871,-121.918 -6.019,-182.891 -1.563,-34.07 -2.813,-68.129 -3.75,-102.149 -2.153,-11.449 -8.481,-15.32 -19.02,-11.609 -8.672,-1.211 -12.543,2.82 -11.601,12.078 1.871,50.153 3.71,100.27 5.539,150.422 h -0.469" /><path
         id="path28"
         style="fill:#8c8f91;fill-opacity:1;fill-rule:evenodd;stroke:none"
         d="m 813.359,788.551 c 0,4.648 2.461,8.051 7.422,10.238 11.449,5.551 23.199,10.981 35.27,16.211 6.527,3.09 11.758,1.25 15.789,-5.59 11.129,-16.711 15.781,-27.851 13.941,-33.43 -1.562,-5.859 -10.39,-12.031 -26.48,-18.558 -12.973,-6.801 -21.641,-9.41 -25.981,-7.852 -4.34,1.52 -9.261,9.141 -14.84,22.731 -2.82,4.648 -4.531,10.039 -5.121,16.25" /><path
         id="path30"
         style="fill:#264e80;fill-opacity:1;fill-rule:nonzero;stroke:none"
         d="m 1702.89,995.859 h 230.63 V 591.02 c 0,-84.93 -7.58,-149.54 -22.66,-193.911 -15.12,-44.379 -45.43,-81.988 -90.94,-112.808 -45.54,-30.86 -103.83,-46.25 -174.84,-46.25 -75.24,0 -133.52,10.148 -174.85,30.469 -41.25,20.39 -73.12,50.152 -95.62,89.21 -22.5,39.071 -35.78,87.391 -39.84,145 l 219.84,30 c 0.31,-32.929 3.16,-57.339 8.59,-73.281 5.39,-15.859 14.57,-28.668 27.5,-38.429 8.75,-6.489 21.25,-9.692 37.5,-9.692 25.71,0 44.57,9.531 56.57,28.594 12.07,19.137 18.12,51.449 18.12,96.879 z m 542.42,-379.839 -197.65,20.781 c 7.5,34.449 18.28,61.597 32.34,81.398 14.06,19.891 34.26,37.071 60.62,51.571 18.95,10.5 45,18.628 78.13,24.371 33.2,5.82 69.14,8.75 107.81,8.75 61.88,0 111.6,-3.512 149.22,-10.469 37.58,-6.992 68.91,-21.481 93.91,-43.442 17.58,-15.23 31.44,-36.789 41.56,-64.679 10.2,-27.93 15.31,-54.61 15.31,-80 V 366.172 c 0,-25.434 1.6,-45.313 4.85,-59.692 3.2,-14.371 10.23,-32.769 21.09,-55.152 h -193.91 c -7.81,13.832 -12.93,24.41 -15.31,31.723 -2.42,7.258 -4.76,18.75 -7.03,34.371 -27.11,-26.172 -54.02,-44.801 -80.78,-55.942 -36.56,-14.878 -79.06,-22.339 -127.5,-22.339 -64.3,0 -113.13,14.879 -146.56,44.687 -33.36,29.762 -50,66.481 -50,110.152 0,41.02 12.03,74.731 36.09,101.098 24.06,26.442 68.44,46.094 133.12,58.902 77.5,15.629 127.74,26.571 150.79,32.821 23,6.25 47.38,14.41 73.12,24.527 0,25.391 -5.27,43.16 -15.78,53.281 -10.55,10.192 -28.98,15.313 -55.31,15.313 -33.87,0 -59.3,-5.434 -76.25,-16.25 -13.13,-8.442 -23.75,-24.332 -31.88,-47.652 z m 179.22,-108.75 c -28.44,-10.122 -58.08,-19.071 -88.91,-26.879 -41.99,-11.172 -68.55,-22.153 -79.68,-32.969 -11.56,-11.25 -17.35,-23.981 -17.35,-38.121 0,-16.25 5.67,-29.531 17.03,-39.852 11.33,-10.308 28.01,-15.469 50,-15.469 23.01,0 44.42,5.551 64.22,16.719 19.89,11.141 33.95,24.731 42.19,40.781 8.32,16.141 12.5,37.071 12.5,62.821 z" /><path
         id="path32"
         style="fill:#264e80;fill-opacity:1;fill-rule:nonzero;stroke:none"
         d="m 2752.58,790.699 h 192.5 V 702.73 c 28.75,35.942 57.81,61.61 87.19,77.04 29.45,15.39 65.39,23.121 107.81,23.121 57.19,0 101.91,-17.032 134.22,-51.09 32.38,-34.071 48.59,-86.641 48.59,-157.66 V 251.328 h -207.81 v 296.563 c 0,33.828 -6.25,57.808 -18.75,71.879 -12.5,14.058 -30.12,21.089 -52.81,21.089 -25,0 -45.32,-9.488 -60.94,-28.437 -15.55,-18.981 -23.28,-52.973 -23.28,-102.031 V 251.328 h -206.72 z" /><path
         id="path34"
         style="fill:#264e80;fill-opacity:1;fill-rule:nonzero;stroke:none"
         d="m 4015.55,251.328 h -192.97 v 87.344 c -28.87,-35.863 -57.93,-61.402 -87.19,-76.723 -29.3,-15.187 -65.23,-22.808 -107.81,-22.808 -56.88,0 -101.53,16.949 -133.91,50.937 -32.3,34.063 -48.44,86.481 -48.44,157.344 v 343.277 h 207.66 V 494.141 c 0,-33.871 6.25,-57.93 18.75,-72.192 12.58,-14.179 30.2,-21.25 52.81,-21.25 24.77,0 45.04,9.461 60.78,28.442 15.71,18.949 23.6,52.968 23.6,102.031 v 259.527 h 206.72 z" /><path
         id="path36"
         style="fill:#264e80;fill-opacity:1;fill-rule:nonzero;stroke:none"
         d="m 4105.39,400.699 205.16,19.223 c 8.43,-24.371 20.23,-41.832 35.47,-52.344 15.31,-10.43 35.62,-15.629 60.93,-15.629 27.82,0 49.3,5.86 64.53,17.66 11.88,8.832 17.82,19.879 17.82,33.121 0,14.891 -7.82,26.411 -23.44,34.54 -11.17,5.699 -40.74,12.808 -88.75,21.25 -71.8,12.5 -121.68,24.058 -149.69,34.679 -27.93,10.711 -51.48,28.789 -70.62,54.223 -19.07,25.387 -28.6,54.379 -28.6,86.879 0,35.5 10.32,66.129 30.94,91.871 20.7,25.707 49.14,44.918 85.31,57.656 36.25,12.692 84.85,19.063 145.78,19.063 64.38,0 111.88,-4.961 142.5,-14.84 30.63,-9.813 56.14,-25 76.57,-45.629 20.5,-20.621 37.54,-48.551 51.09,-83.75 l -195.94,-19.371 c -5.11,17.258 -13.59,30 -25.47,38.121 -16.25,10.816 -35.89,16.25 -58.9,16.25 -23.36,0 -40.39,-4.184 -51.1,-12.5 -10.62,-8.242 -15.93,-18.281 -15.93,-30.152 0,-13.25 6.75,-23.25 20.31,-30 13.52,-6.801 43.01,-12.899 88.44,-18.29 68.63,-7.808 119.72,-18.671 153.28,-32.5 33.51,-13.859 59.14,-33.671 76.87,-59.371 17.82,-25.738 26.72,-54.019 26.72,-84.839 0,-31.18 -9.45,-61.489 -28.28,-90.942 -18.75,-29.379 -48.36,-52.808 -88.75,-70.308 -40.43,-17.391 -95.55,-26.098 -165.31,-26.098 -98.56,0 -168.71,13.988 -210.47,42.027 -41.8,28.129 -68.59,68.129 -80.47,120 z" /></g></g></svg>